<?xml version="1.0" standalone="no"?>
<!DOCTYPE svg PUBLIC "-//W3C//DTD SVG 1.1//EN" "http://www.w3.org/Graphics/SVG/1.1/DTD/svg11.dtd" >
<svg xmlns="http://www.w3.org/2000/svg">
<metadata></metadata>
<defs>
<font id="seravek_lightregular" horiz-adv-x="507" >
<font-face units-per-em="2048" ascent="1536" descent="-512" />
<missing-glyph horiz-adv-x="440" />
<glyph unicode="&#xfb01;" horiz-adv-x="1112" d="M66 864v113h178v55q0 215 100 324.5t291 109.5q142 0 248 -41l-19 -112q-98 39 -221 39q-139 0 -200.5 -77.5t-61.5 -238.5v-59h567v-977h-137v864h-430v-864h-137v864h-178z" />
<glyph unicode="&#xfb02;" horiz-adv-x="1206" d="M66 864v113h178v90q0 203 98.5 301t278.5 98q97 0 182 -20h137v-1213q0 -68 25 -103.5t90 -35.5q57 0 94 12l6 -102q-58 -20 -133 -20q-109 0 -164 65.5t-55 175.5v1108q-78 19 -170 19q-129 0 -190.5 -67t-61.5 -214v-94h276v-113h-276v-864h-137v864h-178z" />
<glyph unicode="&#xfb03;" horiz-adv-x="1720" d="M66 864v113h178v59q0 214 90.5 322t269.5 108q89 0 144 -22l-15 -111q-51 19 -117 19q-125 0 -180 -74.5t-55 -237.5v-63h471v55q0 215 100 324.5t291 109.5q142 0 248 -41l-18 -112q-98 39 -222 39q-139 0 -200.5 -77.5t-61.5 -238.5v-59h567v-977h-137v864h-430v-864 h-137v864h-471v-864h-137v864h-178z" />
<glyph unicode="&#xfb04;" horiz-adv-x="1814" d="M66 864v113h178v59q0 214 90.5 322t269.5 108q89 0 144 -22l-15 -111q-51 19 -117 19q-125 0 -180 -74.5t-55 -237.5v-63h471v90q0 203 98.5 301t278.5 98q97 0 182 -20h137v-1213q0 -68 25 -103.5t90 -35.5q57 0 94 12l6 -102q-58 -20 -133 -20q-109 0 -164 65.5 t-55 175.5v1108q-78 19 -170 19q-129 0 -190.5 -67t-61.5 -214v-94h277v-113h-277v-864h-137v864h-471v-864h-137v864h-178z" />
<glyph horiz-adv-x="2048" />
<glyph horiz-adv-x="2048" />
<glyph unicode="&#xd;" horiz-adv-x="2048" />
<glyph unicode=" "  horiz-adv-x="440" />
<glyph unicode="&#x09;" horiz-adv-x="440" />
<glyph unicode="&#xa0;" horiz-adv-x="440" />
<glyph unicode="!" horiz-adv-x="589" d="M195 84q0 42 28 71t72 29t72 -29t28 -71t-28 -71t-72 -29t-72 29t-28 71zM223 942v422h144v-422l-31 -598h-82z" />
<glyph unicode="&#x22;" horiz-adv-x="823" d="M164 1364h139l-18 -473h-103zM520 1364h139l-18 -473h-102z" />
<glyph unicode="#" horiz-adv-x="1370" d="M102 379v98h240l45 426h-244v98h256l39 363h115l-39 -363h432l39 363h115l-39 -363h217v-98h-229l-43 -426h227v-98h-240l-39 -379h-114l41 379h-432l-41 -379h-115l39 379h-230zM459 477h432l45 426h-432z" />
<glyph unicode="$" horiz-adv-x="1001" d="M133 82l27 108q170 -79 317 -79q126 0 197 60t71 179q0 54 -19.5 99.5t-60 83t-83.5 66t-109 63.5q-158 84 -236.5 172t-78.5 208q0 138 85 220t214 96v252h125v-250q132 -6 256 -68l-25 -108q-148 69 -281 69q-115 0 -178 -52.5t-63 -151.5q0 -33 6.5 -60.5t23 -52.5 t33.5 -43t50.5 -41.5t59.5 -39.5t75 -44q60 -35 99.5 -60t90 -66t79.5 -80t50 -93.5t21 -114.5q0 -140 -86 -230t-242 -118v-252h-125v246q-151 15 -293 82z" />
<glyph unicode="%" horiz-adv-x="1796" d="M123 993q0 77 21 147t61 126t103.5 89.5t142.5 33.5q103 0 179 -58t112 -146t36 -192q0 -103 -36 -191t-112 -146t-179 -58q-79 0 -142.5 33.5t-103.5 89.5t-61 126t-21 146zM242 993q0 -124 53.5 -209.5t155.5 -85.5t155 85.5t53 209.5t-53 209.5t-155 85.5 t-155.5 -85.5t-53.5 -209.5zM524 25l652 1364l100 -50l-653 -1364zM1018 371q0 77 21 147t61 126t103.5 89t142.5 33q103 0 179 -57.5t112 -145.5t36 -192q0 -103 -36 -191t-112 -146.5t-179 -58.5q-104 0 -180.5 58.5t-112 146.5t-35.5 191zM1137 371q0 -124 53.5 -209.5 t155.5 -85.5t155 85.5t53 209.5t-53 209.5t-155 85.5t-155.5 -85.5t-53.5 -209.5z" />
<glyph unicode="&#x26;" horiz-adv-x="1497" d="M127 295q0 52 18.5 102.5t45.5 89t68.5 77.5t76 65t78.5 55q-213 183 -213 385q0 142 98 231t258 89q142 0 235 -78t93 -197q0 -221 -303 -428q187 -161 415 -311q103 132 220 399l100 -49q-106 -266 -227 -414q122 -83 366 -235l-61 -101q-153 93 -377 246 q-219 -246 -498 -246q-178 0 -285.5 89t-107.5 231zM260 301q0 -107 71 -163t189 -56q122 0 220.5 52t187.5 153q-250 167 -434 327q-46 -34 -66 -50t-59.5 -52t-58 -63.5t-34.5 -67.5t-16 -80zM326 1067q0 -164 176 -315q43 30 75.5 56t69.5 62t60.5 70t39 77t15.5 87 q0 84 -59.5 134t-151.5 50q-102 0 -163.5 -59t-61.5 -162z" />
<glyph unicode="'" horiz-adv-x="466" d="M164 1364h139l-18 -473h-103z" />
<glyph unicode="(" horiz-adv-x="673" d="M164 573q0 254 66 474.5t212 480.5l109 -58q-134 -248 -192 -456t-58 -441t58 -441t192 -456l-109 -57q-146 260 -212 480.5t-66 473.5z" />
<glyph unicode=")" horiz-adv-x="673" d="M123 -324q134 248 192 456t58 441t-58 441t-192 456l108 58q147 -261 213 -481.5t66 -473.5t-66 -473t-213 -481z" />
<glyph unicode="*" horiz-adv-x="833" d="M123 1004l219 124l-219 125l37 64l219 -127v256h74v-256l221 127l37 -64l-219 -125l219 -124l-37 -66l-221 125v-252h-74v252l-219 -125z" />
<glyph unicode="+" horiz-adv-x="1239" d="M158 610v105h401v428h121v-428h401v-105h-401v-428h-121v428h-401z" />
<glyph unicode="," horiz-adv-x="497" d="M86 -260q62 124 92 230.5t33 226.5l133 -13q-6 -142 -44.5 -255.5t-117.5 -239.5z" />
<glyph unicode="-" horiz-adv-x="727" d="M123 473v113h481v-113h-481z" />
<glyph unicode="." d="M154 84q0 42 28 71t72 29t72 -29t28 -71t-28 -71t-72 -29t-72 29t-28 71z" />
<glyph unicode="/" horiz-adv-x="845" d="M113 -164l516 1567l114 -39l-516 -1569z" />
<glyph unicode="0" horiz-adv-x="1196" d="M117 682q0 150 29 276t86 223.5t150.5 152.5t215.5 55t215.5 -55t150.5 -152.5t86 -223.5t29 -276t-29 -276t-86 -223.5t-150.5 -152.5t-215.5 -55t-215.5 55t-150.5 152.5t-86 223.5t-29 276zM254 682q0 -130 19 -235t59 -187t107.5 -127t158.5 -45t158.5 45t107.5 127 t59 187t19 235t-19 235t-59 187t-107.5 127t-158.5 45t-158.5 -45t-107.5 -127t-59 -187t-19 -235z" />
<glyph unicode="1" horiz-adv-x="686" d="M45 1206l361 158h96v-1364h-137v1221l-279 -121z" />
<glyph unicode="2" horiz-adv-x="944" d="M57 88q35 37 173 182t212 226q122 136 185 253t63 244q0 129 -68 205t-196 76q-119 0 -250 -74l-37 109q118 80 299 80q178 0 283.5 -105.5t105.5 -284.5q0 -153 -74.5 -291t-220.5 -290q-200 -206 -303 -303h623v-115h-778z" />
<glyph unicode="3" horiz-adv-x="974" d="M102 43l29 113q146 -66 279 -66q148 0 226.5 71.5t78.5 184.5q0 144 -110 220.5t-281 76.5h-86v115h75q161 0 268 81t107 214q0 103 -66.5 162t-183.5 59q-135 0 -256 -62l-30 107q126 70 299 70q166 0 270 -87t104 -233q0 -126 -79.5 -219.5t-215.5 -140.5 q145 -33 233.5 -126.5t88.5 -228.5q0 -170 -122 -274.5t-316 -104.5q-73 0 -161.5 19.5t-150.5 48.5z" />
<glyph unicode="4" horiz-adv-x="1075" d="M82 522l584 842h143v-838h188v-112h-188v-414h-133v414h-576zM223 526h453v664z" />
<glyph unicode="5" horiz-adv-x="1019" d="M133 35l25 112q142 -59 288 -59q150 0 240 75.5t90 203.5q0 145 -108 217.5t-281 72.5h-188v707h669v-113h-532v-479h82q98 0 186.5 -25.5t157.5 -74t110 -125t41 -170.5q0 -178 -131.5 -290t-335.5 -112q-78 0 -167 18t-146 42z" />
<glyph unicode="6" horiz-adv-x="1095" d="M123 500q0 573 647 889l53 -101q-125 -68 -212.5 -129t-164.5 -140.5t-124 -178t-66 -219.5q61 73 149 117t195 44q178 0 282.5 -106.5t104.5 -280.5q0 -180 -119 -300t-299 -120q-87 0 -161 31t-125.5 83.5t-88 120.5t-54 141.5t-17.5 148.5zM256 508q-3 -78 15 -151.5 t54.5 -134.5t100 -98.5t143.5 -37.5q130 0 207.5 87.5t77.5 217.5q0 135 -75.5 207t-205.5 72q-171 0 -317 -162z" />
<glyph unicode="7" horiz-adv-x="909" d="M76 1249v115h729l20 -115l-551 -1249h-141l557 1249h-614z" />
<glyph unicode="8" horiz-adv-x="1093" d="M133 313q0 67 25 127.5t71 110.5t98 89.5t119 76.5q-276 149 -276 366q0 140 108.5 223t268.5 83q161 0 269 -81.5t108 -222.5q0 -58 -20.5 -109t-62 -96.5t-86 -81t-108.5 -77.5q314 -165 314 -402q0 -100 -58.5 -180t-152.5 -122t-203 -42q-178 0 -296 91t-118 247z M266 309q0 -104 76.5 -164.5t204.5 -60.5q125 0 202.5 65.5t77.5 167.5q0 106 -64 176t-216 158q-46 -30 -66 -43.5t-57 -40.5t-54 -43.5t-41.5 -44t-35 -51t-19 -54.5t-8.5 -65zM301 1083q0 -96 54 -157t192 -142q120 74 183 144t63 155t-65.5 141t-180.5 56 q-116 0 -181 -56t-65 -141z" />
<glyph unicode="9" horiz-adv-x="1095" d="M104 969q0 183 115 301.5t303 118.5q88 0 162.5 -31t126 -83.5t88 -120.5t53.5 -141.5t17 -148.5q0 -573 -647 -889l-54 101q99 54 172.5 102t144 109t118 126t82.5 148.5t51 181.5q-57 -72 -147 -116.5t-197 -44.5q-174 0 -281 107.5t-107 279.5zM238 975 q0 -138 71.5 -209.5t202.5 -71.5q95 0 180 45t144 117q3 77 -15 150.5t-55 134.5t-100.5 98t-143.5 37q-130 0 -207 -85.5t-77 -215.5z" />
<glyph unicode=":" d="M154 84q0 42 28 71t72 29t72 -29t28 -71t-28 -71t-72 -29t-72 29t-28 71zM154 745q0 42 28.5 71.5t71.5 29.5t71.5 -29.5t28.5 -71.5t-28 -71t-72 -29t-72 29t-28 71z" />
<glyph unicode=";" horiz-adv-x="534" d="M86 -260q62 124 92 230.5t33 226.5l133 -13q-6 -142 -44.5 -255.5t-117.5 -239.5zM180 745q0 42 28.5 71.5t72.5 29.5q43 0 71.5 -29.5t28.5 -71.5t-28 -71t-72 -29t-72.5 29t-28.5 71z" />
<glyph unicode="&#x3c;" horiz-adv-x="1200" d="M143 610v103l877 448l47 -98l-797 -401l797 -402l-47 -98z" />
<glyph unicode="=" horiz-adv-x="1259" d="M178 395v105h903v-105h-903zM178 823v105h903v-105h-903z" />
<glyph unicode="&#x3e;" horiz-adv-x="1200" d="M133 260l797 402l-797 401l47 98l877 -448v-103l-877 -448z" />
<glyph unicode="?" horiz-adv-x="915" d="M113 1307q133 82 311 82q174 0 276.5 -95.5t102.5 -259.5q0 -58 -17 -116t-42.5 -105.5t-67.5 -98.5t-80.5 -88.5t-94.5 -83t-95.5 -73.5t-96.5 -68l-71 97q51 37 78 56.5t74.5 56t74 61.5t63.5 62t57.5 68.5t41.5 69.5t30 77.5t9 80.5q0 116 -68 179t-184 63 q-123 0 -262 -74zM231 84q0 42 28.5 71t72.5 29t72 -29t28 -71t-28 -71t-72 -29t-72.5 29t-28.5 71z" />
<glyph unicode="@" horiz-adv-x="1650" d="M133 428q0 171 57.5 314.5t159 240.5t242.5 151t305 54q287 0 464 -155t177 -400q0 -203 -106.5 -332t-266.5 -129q-97 0 -155 62.5t-58 150.5q-40 -86 -106 -145.5t-137 -59.5q-79 0 -115.5 61t-36.5 154q0 82 22 156t64 132.5t111 93t155 34.5q108 0 203 -45l-53 -301 q-6 -35 -6 -64q0 -67 31.5 -106t93.5 -39q114 0 186 107t72 266q0 221 -149.5 345t-393.5 124q-182 0 -330 -80t-236.5 -233.5t-88.5 -354.5q0 -274 158 -425.5t448 -151.5q271 0 495 108l27 -84q-247 -115 -532 -115q-164 0 -297 50t-221 138.5t-135.5 211t-47.5 266.5z M664 395q0 -125 73 -125q54 0 113 68.5t106 173.5l35 197q-37 12 -90 12q-79 0 -134.5 -50t-79 -121.5t-23.5 -154.5z" />
<glyph unicode="A" horiz-adv-x="1339" d="M61 0l541 1364h135l541 -1364h-145l-134 348h-659l-133 -348h-146zM383 463h573l-286 758z" />
<glyph unicode="B" horiz-adv-x="1128" d="M174 0v1364h383q197 0 316.5 -88.5t119.5 -235.5q0 -119 -80.5 -203t-216.5 -126q150 -25 247 -111t97 -221q0 -166 -138.5 -272.5t-371.5 -106.5h-356zM305 113h236q168 0 266 70t98 200q0 86 -55.5 147.5t-142.5 89t-195 27.5h-207v-534zM305 760h187q163 0 264.5 73 t101.5 193q0 109 -84.5 167t-222.5 58h-246v-491z" />
<glyph unicode="C" horiz-adv-x="1228" d="M90 682q0 151 47.5 280.5t135.5 224t220 148.5t293 54q90 0 185.5 -17t163.5 -45l-25 -110q-148 55 -309 55q-276 0 -424 -155.5t-148 -434.5t148 -434.5t424 -155.5q161 0 309 55l25 -110q-68 -28 -163.5 -45t-185.5 -17q-161 0 -293 54t-220 148.5t-135.5 224 t-47.5 280.5z" />
<glyph unicode="D" horiz-adv-x="1374" d="M174 0v1364h338q171 0 315.5 -50.5t245.5 -140t158 -216t57 -275.5t-57 -275.5t-158 -216t-245.5 -140t-315.5 -50.5h-338zM313 115h201q178 0 320.5 64.5t228.5 195t86 307.5t-86 307.5t-228.5 195t-320.5 64.5h-201v-1134z" />
<glyph unicode="E" horiz-adv-x="1024" d="M174 0v1364h729v-115h-590v-493h566v-115h-566v-526h596v-115h-735z" />
<glyph unicode="F" horiz-adv-x="983" d="M174 0v1364h733v-117h-594v-520h570v-117h-570v-610h-139z" />
<glyph unicode="G" horiz-adv-x="1380" d="M90 668q0 328 195.5 524.5t527.5 196.5q236 0 401 -76l-24 -113q-183 74 -375 74q-269 0 -427.5 -159.5t-158.5 -446.5q0 -276 152 -428t436 -152q165 0 281 37v463h129v-543q-81 -32 -198 -51t-228 -19q-327 0 -519 190.5t-192 502.5z" />
<glyph unicode="H" horiz-adv-x="1404" d="M174 0v1364h139v-612h779v612h139v-1364h-139v631h-779v-631h-139z" />
<glyph unicode="I" d="M184 0v1364h140v-1364h-140z" />
<glyph unicode="J" horiz-adv-x="487" d="M-12 -231q104 118 150 240.5t46 275.5v1079h140v-1053q-3 -198 -50.5 -334t-185.5 -288z" />
<glyph unicode="K" horiz-adv-x="1161" d="M174 0v1364h139v-664l600 664h174l-612 -676l666 -688h-189l-639 678v-678h-139z" />
<glyph unicode="L" horiz-adv-x="937" d="M174 0v1364h139v-1249h576v-115h-715z" />
<glyph unicode="M" horiz-adv-x="1716" d="M141 0l99 1364h129l489 -983l490 983h129l98 -1364h-135l-74 1133l-432 -877h-152l-432 877l-74 -1133h-135z" />
<glyph unicode="N" horiz-adv-x="1423" d="M174 0v1364h133l809 -1141v1141h133v-1364h-133l-809 1141v-1141h-133z" />
<glyph unicode="O" horiz-adv-x="1495" d="M94 682q0 142 44.5 269t126 225t206.5 155.5t277 57.5t277 -57.5t206 -155.5t125.5 -225t44.5 -269t-44.5 -269.5t-125.5 -225t-206 -155t-277 -57.5t-277 57.5t-206.5 155t-126 225t-44.5 269.5zM233 682q0 -123 35 -230.5t99.5 -188t163 -127t217.5 -46.5 q159 0 277.5 80.5t177.5 213.5t59 298q0 164 -59 297t-177.5 214t-277.5 81q-119 0 -217.5 -47t-163 -127.5t-99.5 -188t-35 -229.5z" />
<glyph unicode="P" horiz-adv-x="1015" d="M174 0v1364h305q140 0 251 -43t179 -132.5t68 -213.5q0 -193 -152 -305.5t-393 -112.5h-119v-557h-139zM313 672h125q178 0 289 80t111 223q0 71 -30 125.5t-82 86t-115.5 47t-137.5 15.5h-160v-577z" />
<glyph unicode="Q" horiz-adv-x="1495" d="M94 682q0 142 44.5 269t126 225t206.5 155.5t277 57.5t277 -57.5t206 -155.5t125.5 -225t44.5 -269q0 -213 -96.5 -387.5t-270.5 -257.5l357 -219l-68 -105l-436 277q-62 -15 -139 -15q-152 0 -277 57.5t-206.5 155t-126 225t-44.5 269.5zM233 682q0 -123 35 -230.5 t99.5 -188t163 -127t217.5 -46.5q159 0 277.5 80.5t177.5 213.5t59 298q0 164 -59 297t-177.5 214t-277.5 81q-119 0 -217.5 -47t-163 -127.5t-99.5 -188t-35 -229.5z" />
<glyph unicode="R" horiz-adv-x="1142" d="M174 0v1364h328q138 0 248.5 -39.5t180.5 -126.5t70 -209q0 -153 -102.5 -252t-265.5 -141l489 -596h-170l-463 573q-40 -4 -77 -4h-99v-569h-139zM313 684h111q123 0 219.5 31.5t157.5 101t61 168.5q0 69 -30.5 121t-82.5 82.5t-115.5 45.5t-135.5 15h-185v-565z" />
<glyph unicode="S" horiz-adv-x="1021" d="M98 55l31 113q174 -78 344 -78q148 0 236 67.5t88 184.5q0 41 -10.5 76.5t-35.5 65.5t-48.5 52t-67 47t-72 39.5t-82.5 39.5q-65 30 -108.5 54t-95 60.5t-82 73.5t-51.5 88t-21 109q0 162 117 252t295 90q198 0 342 -72l-29 -117q-151 74 -311 74q-130 0 -203.5 -55 t-73.5 -162q0 -35 6 -62.5t23.5 -52t33.5 -41t53.5 -39.5t64.5 -37t85 -43q156 -78 209 -113q166 -108 193 -255q6 -32 6 -66q0 -166 -128 -269.5t-329 -103.5q-98 0 -199.5 21.5t-179.5 58.5z" />
<glyph unicode="T" horiz-adv-x="1060" d="M49 1249v115h963v-115h-412v-1249h-139v1249h-412z" />
<glyph unicode="U" horiz-adv-x="1380" d="M170 473v891h139v-899q0 -171 99.5 -273t281.5 -102t281.5 102t99.5 273v899h139v-891q0 -103 -33.5 -192.5t-97.5 -158t-164 -108t-225 -39.5t-225 39.5t-164 108t-97.5 158t-33.5 192.5z" />
<glyph unicode="V" horiz-adv-x="1179" d="M31 1364h137l422 -1194l422 1194h137l-490 -1364h-139z" />
<glyph unicode="W" horiz-adv-x="1884" d="M51 1364h139l322 -1171l344 1171h172l344 -1171l322 1171h139l-391 -1364h-137l-363 1233l-362 -1233h-138z" />
<glyph unicode="X" horiz-adv-x="1208" d="M68 0l464 686l-456 678h153l375 -567l375 567h154l-457 -678l465 -686h-156l-381 578l-381 -578h-155z" />
<glyph unicode="Y" horiz-adv-x="1064" d="M16 1364h148l368 -686l369 686h148l-447 -813v-551h-139v551z" />
<glyph unicode="Z" horiz-adv-x="1103" d="M113 0v115l733 1134h-709v115h856v-115l-733 -1134h746v-115h-893z" />
<glyph unicode="[" horiz-adv-x="729" d="M215 -360v1867h381v-114h-244v-1641h244v-112h-381z" />
<glyph unicode="\" horiz-adv-x="845" d="M102 1364l115 39l516 -1567l-115 -41z" />
<glyph unicode="]" horiz-adv-x="729" d="M133 -248h244v1641h-244v114h381v-1867h-381v112z" />
<glyph unicode="^" horiz-adv-x="1024" d="M133 707l318 657h122l318 -657l-105 -50l-274 590l-274 -590z" />
<glyph unicode="_" horiz-adv-x="829" d="M-4 -438h838v-74h-838v74z" />
<glyph unicode="`" horiz-adv-x="796" d="M246 1454h164l141 -319h-117z" />
<glyph unicode="a" horiz-adv-x="1009" d="M115 244q0 133 91.5 201.5t248.5 78.5q110 7 268 11v63q0 147 -60.5 216t-187.5 69q-144 0 -258 -70l-35 105q128 79 312 79q166 0 266 -100t100 -293v-604h-135v133q-52 -60 -142.5 -106.5t-195.5 -46.5q-129 0 -200.5 72.5t-71.5 191.5zM250 244q0 -78 43 -118t125 -40 q83 0 163.5 43.5t141.5 112.5v194q-109 -2 -252 -14q-221 -21 -221 -178z" />
<glyph unicode="b" horiz-adv-x="1089" d="M164 43v1403h137v-563q43 48 122 81t169 33q123 0 216 -65t141 -177.5t48 -256.5q0 -230 -132.5 -374t-368.5 -144q-181 0 -332 63zM301 123q79 -31 195 -31q175 0 269.5 108t94.5 294q0 173 -75.5 282t-223.5 109q-73 0 -141.5 -30t-118.5 -77v-655z" />
<glyph unicode="c" horiz-adv-x="913" d="M88 487q0 104 28.5 194t84.5 161t149 112t213 41q155 0 264 -53l-18 -108q-114 49 -236 49q-174 0 -261 -107t-87 -289t87 -288.5t261 -106.5q120 0 234 49l20 -108q-50 -24 -124.5 -38.5t-139.5 -14.5q-120 0 -213 41t-149 112t-84.5 160.5t-28.5 193.5z" />
<glyph unicode="d" horiz-adv-x="1089" d="M92 481q0 238 136.5 377t357.5 139q107 0 202 -28v477h138v-1446h-129v141q-52 -69 -137.5 -115t-190.5 -46q-176 0 -276.5 139.5t-100.5 361.5zM229 481q0 -184 68.5 -286.5t208.5 -102.5q153 0 282 156v606q-71 31 -190 31q-166 0 -267.5 -104t-101.5 -300z" />
<glyph unicode="e" horiz-adv-x="978" d="M92 487q0 225 117 367.5t313 142.5q93 0 164.5 -31.5t114.5 -87t64.5 -128t21.5 -158.5q0 -59 -13 -135h-643q2 -181 87 -275t251 -94q150 0 285 64l23 -103q-141 -69 -322 -69q-224 0 -343.5 141.5t-119.5 365.5zM231 565h525q2 24 2 46q0 115 -52 191q-62 90 -190 91 q-127 0 -203.5 -98t-81.5 -230z" />
<glyph unicode="f" horiz-adv-x="704" d="M66 864v113h178v59q0 214 90.5 322t269.5 108q94 0 158 -24l-14 -111q-61 21 -132 21q-125 0 -180 -74.5t-55 -237.5v-63h297v-113h-297v-864h-137v864h-178z" />
<glyph unicode="g" horiz-adv-x="1024" d="M51 -186q0 57 28.5 104.5t74.5 79t91.5 51.5t92.5 31q-111 44 -111 143q0 48 30.5 83.5t74.5 55.5q-99 35 -159 114.5t-60 189.5q0 145 106.5 238t267.5 93q66 0 138 -20h364v-109h-203q78 -78 78 -202q0 -138 -107.5 -234t-269.5 -96q-41 0 -79 6q-50 -43 -50 -90 q0 -77 121 -86l193 -16q321 -31 321 -242q0 -79 -45.5 -146t-120 -111t-170 -68.5t-196.5 -24.5q-184 0 -297 68t-113 188zM182 -174q0 -85 74 -126.5t205 -41.5q160 0 280.5 67t120.5 169q0 73 -58.5 107t-168.5 42l-180 14q-58 -20 -101.5 -40t-85 -48t-64 -64t-22.5 -79z M238 666q0 -111 67.5 -169.5t181.5 -58.5q109 0 180.5 61.5t71.5 166.5q0 106 -71 167.5t-181 61.5q-112 0 -180.5 -58t-68.5 -171z" />
<glyph unicode="h" horiz-adv-x="1112" d="M164 0v1446h137v-602q54 71 136.5 112t178.5 41q88 0 155 -38t107 -105t60 -151.5t20 -184.5v-518h-137v508q0 375 -246 375q-80 0 -151.5 -43.5t-122.5 -108.5v-731h-137z" />
<glyph unicode="i" horiz-adv-x="464" d="M137 1274q0 40 26.5 68t67.5 28q42 0 69.5 -28t27.5 -68q0 -39 -27.5 -66.5t-69.5 -27.5q-41 0 -67.5 27.5t-26.5 66.5zM164 0v977h137v-977h-137z" />
<glyph unicode="j" horiz-adv-x="471" d="M-45 -367q114 132 166.5 265t52.5 313v766h137v-746q0 -203 -58.5 -364t-199.5 -309zM147 1274q0 40 27 68t68 28q42 0 69 -28t27 -68q0 -39 -27 -66.5t-69 -27.5q-41 0 -68 27.5t-27 66.5z" />
<glyph unicode="k" horiz-adv-x="968" d="M164 0v1446h137v-934l424 465h168l-440 -479l487 -498h-174l-465 483v-483h-137z" />
<glyph unicode="l" horiz-adv-x="563" d="M160 225v1221h137v-1213q0 -68 25 -103.5t90 -35.5q57 0 94 12l6 -102q-58 -20 -133 -20q-109 0 -164 65.5t-55 175.5z" />
<glyph unicode="m" horiz-adv-x="1744" d="M164 0v977h129v-141q51 73 135.5 117t181.5 44q192 0 281 -190q140 190 356 190q118 0 197 -65.5t113 -170.5t34 -243v-518h-137v508q0 375 -242 375q-83 0 -151 -45.5t-137 -126.5q22 -77 22 -193v-518h-137v508q0 375 -242 375q-74 0 -144.5 -43.5t-121.5 -108.5v-731 h-137z" />
<glyph unicode="n" horiz-adv-x="1112" d="M164 0v977h129v-141q123 161 323 161q88 0 155 -38t107 -105t60 -151.5t20 -184.5v-518h-137v508q0 375 -246 375q-80 0 -151.5 -43.5t-122.5 -108.5v-731h-137z" />
<glyph unicode="o" horiz-adv-x="1101" d="M92 487q0 102 30.5 193.5t87 162.5t145 112.5t196.5 41.5t196.5 -41.5t145 -112.5t87 -162.5t30.5 -193.5t-30.5 -192.5t-87 -161t-145 -112t-196.5 -41.5t-196.5 41.5t-145 112t-87 161t-30.5 192.5zM229 487q0 -174 84 -285.5t238 -111.5q103 0 177 54t109 142t35 201 t-35 202t-109 143.5t-177 54.5t-177 -54.5t-109.5 -143.5t-35.5 -202z" />
<glyph unicode="p" horiz-adv-x="1089" d="M164 -422v1399h129v-135q129 155 323 155q123 0 210.5 -67t129 -178.5t41.5 -255.5q0 -236 -133.5 -376t-359.5 -140q-108 0 -203 28v-430h-137zM301 123q71 -31 191 -31q178 0 273 105t95 299q0 180 -68.5 284.5t-207.5 104.5q-82 0 -156 -45.5t-127 -110.5v-606z" />
<glyph unicode="q" horiz-adv-x="1087" d="M92 479q0 235 132.5 376.5t369.5 141.5q196 0 332 -63v-1356h-138v516q-47 -48 -123.5 -81t-166.5 -33q-123 0 -216.5 66.5t-141.5 179t-48 253.5zM229 483q0 -176 75 -283.5t224 -107.5q141 0 260 107v655q-84 31 -194 31q-175 0 -270 -108.5t-95 -293.5z" />
<glyph unicode="r" horiz-adv-x="712" d="M164 0v977h129v-195q39 94 123.5 149.5t199.5 55.5q41 0 68 -10v-113h-39q-240 0 -344 -192v-672h-137z" />
<glyph unicode="s" horiz-adv-x="868" d="M115 37l24 110q128 -57 264 -57q103 0 169.5 42.5t66.5 121.5q0 37 -14.5 65.5t-46 51t-60 37t-75.5 35.5q-13 5 -19 8q-133 59 -186 97q-108 81 -109 193q0 125 92.5 190.5t235.5 65.5q155 0 278 -65l-26 -111q-129 66 -252 66q-193 0 -193 -133q0 -25 9.5 -46t20.5 -35 t36.5 -30.5t40 -24t49 -23.5t47.5 -22q10 -5 44.5 -20.5t51.5 -24t49.5 -26.5t50.5 -32.5t42.5 -38t37 -46.5t22 -54t9.5 -65q0 -129 -103 -207.5t-265 -78.5q-72 0 -156 16t-135 41z" />
<glyph unicode="t" horiz-adv-x="778" d="M51 864v113h178v260h138v-260h331v-113h-331v-542q0 -121 33.5 -175.5t129.5 -54.5q77 0 162 29l13 -105q-32 -14 -90 -25t-109 -11q-277 0 -277 344v540h-178z" />
<glyph unicode="u" horiz-adv-x="1095" d="M145 459v518h138v-508q0 -184 53 -279.5t184 -95.5q80 0 152 43.5t123 108.5v731h137v-977h-129v141q-123 -161 -324 -161q-86 0 -151.5 38t-104.5 105t-58.5 151.5t-19.5 184.5z" />
<glyph unicode="v" horiz-adv-x="929" d="M41 977h143l281 -832l280 832h144l-352 -977h-144z" />
<glyph unicode="w" horiz-adv-x="1511" d="M51 977h137l224 -805l266 805h156l266 -805l223 805h137l-295 -977h-129l-280 852l-281 -852h-129z" />
<glyph unicode="x" horiz-adv-x="987" d="M53 0l369 494l-361 483h154l279 -387l278 387h154l-361 -483l369 -494h-154l-286 395l-287 -395h-154z" />
<glyph unicode="y" horiz-adv-x="907" d="M35 977h143l279 -832l274 832h141l-497 -1399h-135l147 416z" />
<glyph unicode="z" horiz-adv-x="911" d="M123 0v113l536 751h-509v113h657v-113l-537 -751h549v-113h-696z" />
<glyph unicode="{" horiz-adv-x="815" d="M102 518v111h45q95 0 137 49t42 153v328q0 182 80 265t245 83h51v-114h-49q-106 0 -148 -53.5t-42 -176.5v-313q0 -113 -44.5 -182t-152.5 -95q109 -26 153 -94.5t44 -181.5v-313q0 -123 42 -176.5t148 -53.5h49v-114h-51q-165 0 -245 83t-80 265v327q0 105 -42 154 t-137 49h-45z" />
<glyph unicode="|" horiz-adv-x="524" d="M205 -512v2048h114v-2048h-114z" />
<glyph unicode="}" horiz-adv-x="815" d="M113 -246h49q106 0 148 53.5t42 176.5v313q0 113 44 181.5t153 94.5q-108 26 -152.5 95t-44.5 182v313q0 123 -42 176.5t-148 53.5h-49v114h51q165 0 245 -83t80 -265v-328q0 -104 42 -153t137 -49h45v-111h-45q-95 0 -137 -49t-42 -154v-327q0 -182 -80 -265t-245 -83 h-51v114z" />
<glyph unicode="~" horiz-adv-x="1167" d="M133 596q46 128 104 180.5t154 52.5q15 0 31 -2t27.5 -4t28.5 -8l25.5 -9t28 -12.5t25.5 -12.5t29.5 -15.5t29.5 -15.5q13 -7 38.5 -21t38.5 -20.5t32.5 -15t37 -12t36.5 -3.5q49 0 76 32.5t73 129.5l96 -49q-52 -125 -107 -176.5t-142 -51.5q-22 0 -43 4t-48 14.5 t-39.5 16t-47.5 23.5t-42 22q-11 5 -38 19.5t-40.5 21t-35 15.5t-39 12.5t-33.5 3.5q-19 0 -33.5 -2.5t-27.5 -12.5t-21 -16t-20 -26t-16.5 -28.5t-19 -38.5t-20.5 -42z" />
<glyph unicode="&#xa1;" horiz-adv-x="610" d="M205 897q0 42 28 71t72 29t72.5 -29t28.5 -71t-28.5 -71t-72.5 -29t-72 29t-28 71zM233 39l31 598h82l31 -598v-422h-144v422z" />
<glyph unicode="&#xa2;" horiz-adv-x="1009" d="M143 682q0 189 98.5 320t280.5 161v244h125v-238q127 -7 219 -49l-20 -108q-108 43 -225 43q-166 0 -254 -101t-88 -272q0 -172 88 -273.5t254 -101.5q120 0 225 43l20 -106q-93 -42 -219 -49v-240h-125v246q-182 28 -280.5 159t-98.5 322z" />
<glyph unicode="&#xa3;" horiz-adv-x="1085" d="M113 102q108 101 166 214.5t67 252.5h-219v111h223v242q0 222 97.5 344.5t285.5 122.5q150 0 250 -54l-25 -108q-100 47 -215 47q-131 0 -193.5 -87t-62.5 -267v-240h349v-111h-353q-12 -268 -225 -456h664v-113h-781z" />
<glyph unicode="&#xa4;" horiz-adv-x="1284" d="M154 229l172 172q-107 123 -107 281q0 156 107 276l-172 175l82 77l180 -178q101 66 227 66q124 0 225 -66l181 178l81 -77l-174 -175q109 -115 109 -276q0 -162 -109 -281l174 -172l-81 -77l-181 178q-97 -66 -225 -66q-130 0 -227 66l-180 -178zM338 682 q0 -134 84 -227t221 -93q136 0 219.5 93.5t83.5 226.5q0 132 -84 225.5t-219 93.5q-137 0 -221 -93.5t-84 -225.5z" />
<glyph unicode="&#xa5;" horiz-adv-x="1095" d="M113 1364h145l289 -682l291 682h145l-266 -590h223v-102h-268l-56 -121v-125h324v-100h-324v-326h-137v326h-323v100h323v125l-55 121h-268v102h223z" />
<glyph unicode="&#xa6;" horiz-adv-x="524" d="M205 268h114v-780h-114v780zM205 756v780h114v-780h-114z" />
<glyph unicode="&#xa7;" horiz-adv-x="1241" d="M154 963q0 231 163.5 367t425.5 136q160 0 242 -36l-14 -93q-100 33 -205 33q-111 0 -176.5 -57.5t-65.5 -173.5q0 -100 53.5 -177t176.5 -186q58 -51 88 -78.5t81 -78.5t79 -91t58.5 -93.5t44 -111t13.5 -118.5q0 -112 -51 -208.5t-135.5 -160t-193 -99.5t-224.5 -36 q-152 0 -270 41l16 92q119 -39 242 -39q119 0 183.5 63.5t64.5 174.5q0 35 -8 67.5t-27.5 65.5t-36.5 57.5t-52.5 60t-56 54.5t-67 60t-66.5 59q-142 131 -212 247.5t-70 258.5zM266 969q0 -66 16.5 -123.5t53.5 -112t76.5 -98t103.5 -103.5q21 -19 67.5 -61t70.5 -65 t62.5 -62t59.5 -69.5t43.5 -69.5t32.5 -79t10 -83q0 -59 -26.5 -118t-63.5 -95q234 132 234 358q0 62 -17 119t-41 101t-70 96.5t-84.5 88.5t-103.5 93q-72 63 -116.5 109t-85 100.5t-58.5 111t-18 119.5q0 141 104 224q-250 -127 -250 -381z" />
<glyph unicode="&#xa8;" horiz-adv-x="1048" d="M246 1286q0 40 26.5 67t67.5 27q42 0 70 -27t28 -67q0 -43 -27.5 -70.5t-70.5 -27.5q-41 0 -67.5 27.5t-26.5 70.5zM610 1286q0 40 27 67t68 27q42 0 70 -27t28 -67q0 -43 -27.5 -70.5t-70.5 -27.5q-41 0 -68 27.5t-27 70.5z" />
<glyph unicode="&#xa9;" horiz-adv-x="1703" d="M143 682q0 145 51.5 274.5t143 225t225.5 151.5t289 56t289 -56t225.5 -151.5t143 -225t51.5 -274.5q0 -144 -52 -273.5t-143 -225.5t-225 -152t-289 -56t-289 56t-225 152t-143 225.5t-52 273.5zM215 682q0 -176 78 -322.5t225 -234.5t334 -88t334 88t225 234.5 t78 322.5t-78 322.5t-225 234.5t-334 88t-334 -88t-225 -234.5t-78 -322.5zM502 682q0 178 104.5 289.5t290.5 111.5q124 0 203 -36l-17 -89q-85 31 -178 31q-143 0 -218 -80.5t-75 -226.5t75 -226.5t218 -80.5q93 0 178 31l17 -89q-79 -36 -203 -36q-186 0 -290.5 111.5 t-104.5 289.5z" />
<glyph unicode="&#xaa;" horiz-adv-x="915" d="M143 416v100h629v-100h-629zM166 848q0 93 63.5 144t169.5 61q110 10 207 10v35q0 99 -42.5 143.5t-127.5 44.5q-104 0 -194 -49l-23 92q96 55 236 55q124 0 198 -71t74 -209v-426h-119v86q-43 -45 -105.5 -73.5t-133.5 -28.5q-93 0 -148 50.5t-55 135.5zM287 848 q0 -96 108 -96q110 0 211 98v133q-71 -5 -172 -16q-71 -8 -109 -35.5t-38 -83.5z" />
<glyph unicode="&#xab;" horiz-adv-x="1128" d="M113 492l331 419l91 -71l-277 -348l277 -349l-91 -71zM553 492l332 419l90 -71l-277 -348l277 -349l-90 -71z" />
<glyph unicode="&#xac;" horiz-adv-x="1251" d="M164 610v105h923v-533h-120v428h-803z" />
<glyph unicode="&#xad;" horiz-adv-x="727" d="M123 473v113h481v-113h-481z" />
<glyph unicode="&#xae;" horiz-adv-x="1159" d="M133 946q0 121 55 221.5t158 161t234 60.5t233.5 -60.5t157.5 -161t55 -221.5q0 -120 -55 -220.5t-158 -161t-233 -60.5t-233.5 60.5t-158.5 161t-55 220.5zM193 946q0 -165 108 -278t279 -113t279 113t108 278q0 164 -108 277.5t-279 113.5t-279 -113.5t-108 -277.5z M446 735v449h144q68 0 113 -35t45 -92q0 -48 -28.5 -81.5t-74.5 -47.5l154 -193h-99l-135 176h-41v-176h-78zM524 975h29q117 0 117 78q0 32 -25.5 49.5t-64.5 17.5h-56v-145z" />
<glyph unicode="&#xaf;" horiz-adv-x="1019" d="M246 1212v111h528v-111h-528z" />
<glyph unicode="&#xb0;" horiz-adv-x="819" d="M154 1141q0 103 69.5 175.5t186.5 72.5t186.5 -72.5t69.5 -175.5q0 -104 -69.5 -177t-186.5 -73t-186.5 73t-69.5 177zM252 1141q0 -68 40 -118t118 -50t117.5 49.5t39.5 118.5q0 68 -39.5 117t-117.5 49t-118 -49t-40 -117z" />
<glyph unicode="&#xb1;" horiz-adv-x="1251" d="M164 0v104h923v-104h-923zM164 659v103h401v379h121v-379h401v-103h-401v-380h-121v380h-401z" />
<glyph unicode="&#xb2;" horiz-adv-x="724" d="M68 940q195 163 245 207q46 40 73 66.5t58 64.5t45.5 77t14.5 81q0 69 -43 108t-119 39q-86 0 -184 -55l-31 92q97 61 229 61q126 0 197.5 -65t71.5 -172q0 -59 -17.5 -109.5t-55.5 -97t-71.5 -78t-91.5 -78.5q-29 -24 -156 -123h420v-98h-561z" />
<glyph unicode="&#xb3;" horiz-adv-x="712" d="M92 889l23 92q98 -45 192 -45q91 0 142 35.5t51 101.5q0 73 -61.5 108.5t-159.5 35.5h-97v100h84q99 0 157 42t58 105q0 59 -43 89t-116 30q-95 0 -181 -45l-24 92q91 51 223 51q117 0 188.5 -53.5t71.5 -148.5q0 -71 -44 -123.5t-128 -81.5q193 -47 193 -201 q0 -106 -86.5 -169.5t-221.5 -63.5q-56 0 -118 13.5t-103 35.5z" />
<glyph unicode="&#xb4;" horiz-adv-x="796" d="M246 1135l141 319h164l-189 -319h-116z" />
<glyph unicode="&#xb5;" horiz-adv-x="1220" d="M164 -422v1399h137v-508q0 -182 53.5 -279.5t184.5 -97.5q143 0 274 152v733h137v-721q0 -83 30.5 -126.5t113.5 -43.5h39v-84q-54 -14 -97 -14q-83 0 -135.5 43.5t-73.5 118.5q-133 -170 -321 -170q-91 0 -155 54t-89 134q39 -170 39 -352v-238h-137z" />
<glyph unicode="&#xb6;" horiz-adv-x="1146" d="M123 879q0 114 39 207.5t105 153t152 92t181 32.5h373v-1651h-121v1547h-250v-861q-218 0 -348.5 131.5t-130.5 348.5z" />
<glyph unicode="&#xb7;" d="M154 512q0 42 28 71t72 29t72 -29t28 -71t-28 -71t-72 -29t-72 29t-28 71z" />
<glyph unicode="&#xb8;" horiz-adv-x="796" d="M246 -158l63 158h105l-37 -102q70 -11 122 -48t52 -104q0 -145 -275 -188l-24 90q172 31 172 98q0 22 -14 38t-43.5 27t-54.5 17t-66 14z" />
<glyph unicode="&#xb9;" horiz-adv-x="522" d="M47 1575l246 86h86v-801h-121v678l-182 -59z" />
<glyph unicode="&#xba;" horiz-adv-x="974" d="M143 1022q0 150 92.5 256t251.5 106q107 0 187 -51.5t118.5 -132.5t38.5 -178q0 -149 -92 -254.5t-252 -105.5q-106 0 -186 51.5t-119 132t-39 176.5zM174 416v100h629v-100h-629zM262 1022q0 -114 59.5 -189t165.5 -75t166 75t60 189q0 115 -60 190.5t-166 75.5 t-165.5 -75.5t-59.5 -190.5z" />
<glyph unicode="&#xbb;" horiz-adv-x="1128" d="M154 143l276 349l-276 348l90 71l331 -419l-331 -420zM594 143l276 349l-276 348l90 71l332 -419l-332 -420z" />
<glyph unicode="&#xbc;" horiz-adv-x="1646" d="M123 1278l246 86h86v-801h-121v678l-182 -59zM381 23l725 1366l90 -48l-727 -1366zM881 297l415 504h117v-490h121v-94h-121v-217h-115v217h-397zM1016 311h282v351z" />
<glyph unicode="&#xbd;" horiz-adv-x="1757" d="M123 1278l246 86h86v-801h-121v678l-182 -59zM381 23l725 1366l90 -48l-727 -1366zM1018 80q218 183 246 207q46 40 72.5 66.5t57.5 64.5t45.5 76.5t14.5 80.5q0 69 -43 108.5t-119 39.5q-86 0 -184 -55l-31 92q97 61 230 61q126 0 197 -65t71 -172q0 -59 -17.5 -109.5 t-55.5 -97t-71.5 -78t-91.5 -78.5q-42 -35 -155 -123h420v-98h-562z" />
<glyph unicode="&#xbe;" horiz-adv-x="1759" d="M154 592l22 92q98 -45 193 -45q91 0 141.5 35.5t50.5 101.5q0 73 -61.5 108.5t-159.5 35.5h-96v100h84q99 0 157 42t58 105q0 59 -43 89t-117 30q-94 0 -180 -45l-25 92q91 51 223 51q117 0 189 -53.5t72 -148.5q0 -145 -173 -205q193 -47 193 -201q0 -106 -86 -169.5 t-221 -63.5q-56 0 -118 13.5t-103 35.5zM494 23l725 1366l90 -48l-727 -1366zM993 297l416 504h117v-490h121v-94h-121v-217h-115v217h-397zM1128 311h283v351z" />
<glyph unicode="&#xbf;" horiz-adv-x="925" d="M123 -53q0 58 17 116t42 106t67.5 98.5t80.5 88.5t94 82.5t95.5 73.5t96.5 68l72 -97q-51 -37 -78 -56.5t-74.5 -56t-74 -61.5t-63.5 -62t-57.5 -68.5t-41.5 -69.5t-30 -77.5t-9 -80.5q0 -116 68 -179t184 -63q123 0 262 74l39 -109q-133 -82 -311 -82 q-174 0 -276.5 95.5t-102.5 259.5zM494 897q0 42 28 71t72 29t72 -29t28 -71t-28 -71t-72 -29t-72 29t-28 71z" />
<glyph unicode="&#xc0;" horiz-adv-x="1339" d="M61 0l541 1364h135l541 -1364h-145l-134 348h-659l-133 -348h-146zM375 1722h172l170 -227h-121zM383 463h573l-286 758z" />
<glyph unicode="&#xc1;" horiz-adv-x="1339" d="M61 0l541 1364h135l541 -1364h-145l-134 348h-659l-133 -348h-146zM383 463h573l-286 758zM598 1495l170 227h172l-221 -227h-121z" />
<glyph unicode="&#xc2;" horiz-adv-x="1339" d="M61 0l541 1364h135l541 -1364h-145l-134 348h-659l-133 -348h-146zM383 463h573l-286 758zM408 1495l188 227h147l189 -227h-131l-131 158l-131 -158h-131z" />
<glyph unicode="&#xc3;" horiz-adv-x="1339" d="M61 0l541 1364h135l541 -1364h-145l-134 348h-659l-133 -348h-146zM346 1540q32 95 74 135.5t115 40.5q63 0 159 -47q8 -4 30.5 -15t33.5 -15.5t27.5 -9.5t29.5 -5q18 0 30.5 5t24.5 21.5t17.5 26.5t19.5 39l86 -41q-37 -83 -75.5 -121t-102.5 -38q-9 0 -18 1t-19 3.5 t-18 4t-19.5 6t-18 7t-18.5 8t-17 7.5t-18 8t-16 8q-8 4 -25 11.5t-25 11t-20.5 8t-23.5 6.5t-22 2q-36 0 -56.5 -24t-48.5 -83zM383 463h573l-286 758z" />
<glyph unicode="&#xc4;" horiz-adv-x="1339" d="M61 0l541 1364h135l541 -1364h-145l-134 348h-659l-133 -348h-146zM383 463h573l-286 758zM383 1616q0 41 25.5 66.5t68.5 25.5t68.5 -25.5t25.5 -66.5t-25.5 -66.5t-68.5 -25.5t-68.5 25.5t-25.5 66.5zM766 1616q0 41 25.5 66.5t68.5 25.5t68.5 -25.5t25.5 -66.5 t-25.5 -66.5t-68.5 -25.5t-68.5 25.5t-25.5 66.5z" />
<glyph unicode="&#xc5;" horiz-adv-x="1339" d="M61 0l525 1323q-43 21 -65.5 60t-22.5 85q0 66 46 115t126 49t126 -49t46 -115q0 -45 -23 -84.5t-65 -60.5l524 -1323h-145l-134 348h-659l-133 -348h-146zM383 463h573l-286 758zM578 1468q0 -41 25 -67.5t67 -26.5q41 0 65.5 26.5t24.5 67.5t-25 68t-65 27 q-42 0 -67 -27t-25 -68z" />
<glyph unicode="&#xc6;" horiz-adv-x="1773" d="M20 0l785 1364h848v-115h-676l65 -493h553v-115h-538l67 -526h535v-115h-649l-43 348h-602l-195 -348h-150zM430 461h520l-94 768z" />
<glyph unicode="&#xc7;" horiz-adv-x="1228" d="M90 682q0 151 47.5 280.5t135.5 224t220 148.5t293 54q90 0 185.5 -17t163.5 -45l-25 -110q-148 55 -309 55q-276 0 -424 -155.5t-148 -434.5t148 -434.5t424 -155.5q161 0 309 55l25 -110q-143 -59 -344 -62l-27 -77q70 -11 122 -48t52 -104q0 -145 -274 -188l-25 90 q172 31 172 98q0 22 -14 38t-43.5 27t-54.5 17t-66 14l55 140q-279 30 -438.5 222.5t-159.5 477.5z" />
<glyph unicode="&#xc8;" horiz-adv-x="1024" d="M174 0v1364h729v-115h-590v-493h566v-115h-566v-526h596v-115h-735zM305 1722h172l170 -227h-121z" />
<glyph unicode="&#xc9;" horiz-adv-x="1024" d="M174 0v1364h729v-115h-590v-493h566v-115h-566v-526h596v-115h-735zM416 1495l170 227h172l-221 -227h-121z" />
<glyph unicode="&#xca;" horiz-adv-x="1024" d="M174 0v1364h729v-115h-590v-493h566v-115h-566v-526h596v-115h-735zM285 1495l188 227h148l188 -227h-131l-131 158l-131 -158h-131z" />
<glyph unicode="&#xcb;" horiz-adv-x="1024" d="M174 0v1364h729v-115h-590v-493h566v-115h-566v-526h596v-115h-735zM264 1616q0 41 25.5 66.5t68.5 25.5t69 -25.5t26 -66.5t-26 -66.5t-69 -25.5t-68.5 25.5t-25.5 66.5zM647 1616q0 41 25.5 66.5t68.5 25.5t69 -25.5t26 -66.5t-26 -66.5t-69 -25.5t-68.5 25.5 t-25.5 66.5z" />
<glyph unicode="&#xcc;" d="M-14 1722h172l170 -227h-121zM184 0v1364h140v-1364h-140z" />
<glyph unicode="&#xcd;" d="M178 1495l170 227h172l-221 -227h-121zM184 0v1364h140v-1364h-140z" />
<glyph unicode="&#xce;" d="M-8 1495l188 227h148l188 -227h-131l-131 158l-131 -158h-131zM184 0v1364h140v-1364h-140z" />
<glyph unicode="&#xcf;" d="M-31 1616q0 41 25.5 66.5t68.5 25.5t69 -25.5t26 -66.5t-26 -66.5t-69 -25.5t-68.5 25.5t-25.5 66.5zM184 0v1364h140v-1364h-140zM352 1616q0 41 25.5 66.5t68.5 25.5t69 -25.5t26 -66.5t-26 -66.5t-69 -25.5t-68.5 25.5t-25.5 66.5z" />
<glyph unicode="&#xd0;" horiz-adv-x="1456" d="M102 627v112h154v625h338q171 0 315.5 -50.5t245.5 -140t158 -216t57 -275.5t-57 -275.5t-158 -216t-245.5 -140t-315.5 -50.5h-338v627h-154zM395 115h201q178 0 320.5 64.5t228.5 195t86 307.5t-86 307.5t-228.5 195t-320.5 64.5h-201v-510h400v-112h-400v-512z" />
<glyph unicode="&#xd1;" horiz-adv-x="1423" d="M174 0v1364h133l809 -1141v1141h133v-1364h-133l-809 1141v-1141h-133zM393 1540q32 95 74 135.5t115 40.5q63 0 159 -47q8 -4 30.5 -15t33.5 -15.5t27.5 -9.5t29.5 -5q18 0 30.5 5t24.5 21.5t17.5 26.5t19.5 39l86 -41q-37 -83 -75.5 -121t-102.5 -38q-9 0 -18 1 t-19 3.5t-18 4t-19.5 6t-18 7t-18.5 8t-17 7.5t-18 8t-16 8q-8 4 -25 11.5t-25 11t-20.5 8t-23.5 6.5t-22 2q-36 0 -56.5 -24t-48.5 -83z" />
<glyph unicode="&#xd2;" horiz-adv-x="1495" d="M94 682q0 142 44.5 269t126 225t206.5 155.5t277 57.5t277 -57.5t206 -155.5t125.5 -225t44.5 -269t-44.5 -269.5t-125.5 -225t-206 -155t-277 -57.5t-277 57.5t-206.5 155t-126 225t-44.5 269.5zM233 682q0 -123 35 -230.5t99.5 -188t163 -127t217.5 -46.5 q159 0 277.5 80.5t177.5 213.5t59 298q0 164 -59 297t-177.5 214t-277.5 81q-119 0 -217.5 -47t-163 -127.5t-99.5 -188t-35 -229.5zM498 1722h172l170 -227h-121z" />
<glyph unicode="&#xd3;" horiz-adv-x="1495" d="M94 682q0 142 44.5 269t126 225t206.5 155.5t277 57.5t277 -57.5t206 -155.5t125.5 -225t44.5 -269t-44.5 -269.5t-125.5 -225t-206 -155t-277 -57.5t-277 57.5t-206.5 155t-126 225t-44.5 269.5zM233 682q0 -123 35 -230.5t99.5 -188t163 -127t217.5 -46.5 q159 0 277.5 80.5t177.5 213.5t59 298q0 164 -59 297t-177.5 214t-277.5 81q-119 0 -217.5 -47t-163 -127.5t-99.5 -188t-35 -229.5zM668 1495l170 227h172l-222 -227h-120z" />
<glyph unicode="&#xd4;" horiz-adv-x="1495" d="M94 682q0 142 44.5 269t126 225t206.5 155.5t277 57.5t277 -57.5t206 -155.5t125.5 -225t44.5 -269t-44.5 -269.5t-125.5 -225t-206 -155t-277 -57.5t-277 57.5t-206.5 155t-126 225t-44.5 269.5zM233 682q0 -123 35 -230.5t99.5 -188t163 -127t217.5 -46.5 q159 0 277.5 80.5t177.5 213.5t59 298q0 164 -59 297t-177.5 214t-277.5 81q-119 0 -217.5 -47t-163 -127.5t-99.5 -188t-35 -229.5zM485 1495l189 227h147l189 -227h-131l-131 158l-132 -158h-131z" />
<glyph unicode="&#xd5;" horiz-adv-x="1495" d="M94 682q0 142 44.5 269t126 225t206.5 155.5t277 57.5t277 -57.5t206 -155.5t125.5 -225t44.5 -269t-44.5 -269.5t-125.5 -225t-206 -155t-277 -57.5t-277 57.5t-206.5 155t-126 225t-44.5 269.5zM233 682q0 -123 35 -230.5t99.5 -188t163 -127t217.5 -46.5 q159 0 277.5 80.5t177.5 213.5t59 298q0 164 -59 297t-177.5 214t-277.5 81q-119 0 -217.5 -47t-163 -127.5t-99.5 -188t-35 -229.5zM438 1540q32 95 74 135.5t115 40.5q63 0 159 -47q8 -4 30.5 -15t33.5 -15.5t27.5 -9.5t29.5 -5q18 0 30.5 5t24.5 21.5t17.5 26.5t19.5 39 l86 -41q-37 -83 -75.5 -121t-102.5 -38q-9 0 -18 1t-19 3.5t-18 4t-19.5 6t-18 7t-18.5 8t-17 7.5t-18 8t-16 8q-8 4 -25 11.5t-25 11t-20.5 8t-23.5 6.5t-22 2q-36 0 -56.5 -24t-48.5 -83z" />
<glyph unicode="&#xd6;" horiz-adv-x="1495" d="M94 682q0 142 44.5 269t126 225t206.5 155.5t277 57.5t277 -57.5t206 -155.5t125.5 -225t44.5 -269t-44.5 -269.5t-125.5 -225t-206 -155t-277 -57.5t-277 57.5t-206.5 155t-126 225t-44.5 269.5zM233 682q0 -123 35 -230.5t99.5 -188t163 -127t217.5 -46.5 q159 0 277.5 80.5t177.5 213.5t59 298q0 164 -59 297t-177.5 214t-277.5 81q-119 0 -217.5 -47t-163 -127.5t-99.5 -188t-35 -229.5zM461 1616q0 41 25.5 66.5t68.5 25.5t68.5 -25.5t25.5 -66.5t-25.5 -66.5t-68.5 -25.5t-68.5 25.5t-25.5 66.5zM844 1616q0 41 25.5 66.5 t68.5 25.5t68.5 -25.5t25.5 -66.5t-25.5 -66.5t-68.5 -25.5t-68.5 25.5t-25.5 66.5z" />
<glyph unicode="&#xd7;" horiz-adv-x="1169" d="M174 330l332 332l-332 331l78 78l332 -334l331 334l80 -78l-333 -331l333 -332l-80 -80l-331 334l-332 -334z" />
<glyph unicode="&#xd8;" horiz-adv-x="1511" d="M102 -74l189 240q-92 98 -140.5 232t-48.5 284q0 142 44.5 269t126 225t206.5 155.5t277 57.5q231 0 395 -132l186 238l72 -59l-188 -240q91 -97 139.5 -231t48.5 -283q0 -142 -44.5 -269.5t-125.5 -225t-206 -155t-277 -57.5q-231 0 -396 127l-184 -233zM242 682 q0 -253 131 -414l702 893q-136 113 -319 113q-158 0 -276.5 -81t-178 -214t-59.5 -297zM438 201q130 -111 318 -111q159 0 277.5 80.5t177.5 213.5t59 298q0 249 -129 412z" />
<glyph unicode="&#xd9;" horiz-adv-x="1380" d="M170 473v891h139v-899q0 -171 99.5 -273t281.5 -102t281.5 102t99.5 273v899h139v-891q0 -103 -33.5 -192.5t-97.5 -158t-164 -108t-225 -39.5t-225 39.5t-164 108t-97.5 158t-33.5 192.5zM475 1722h172l170 -227h-121z" />
<glyph unicode="&#xda;" horiz-adv-x="1380" d="M170 473v891h139v-899q0 -171 99.5 -273t281.5 -102t281.5 102t99.5 273v899h139v-891q0 -103 -33.5 -192.5t-97.5 -158t-164 -108t-225 -39.5t-225 39.5t-164 108t-97.5 158t-33.5 192.5zM602 1495l170 227h172l-221 -227h-121z" />
<glyph unicode="&#xdb;" horiz-adv-x="1380" d="M170 473v891h139v-899q0 -171 99.5 -273t281.5 -102t281.5 102t99.5 273v899h139v-891q0 -103 -33.5 -192.5t-97.5 -158t-164 -108t-225 -39.5t-225 39.5t-164 108t-97.5 158t-33.5 192.5zM428 1495l188 227h148l188 -227h-131l-131 158l-131 -158h-131z" />
<glyph unicode="&#xdc;" horiz-adv-x="1380" d="M170 473v891h139v-899q0 -171 99.5 -273t281.5 -102t281.5 102t99.5 273v899h139v-891q0 -103 -33.5 -192.5t-97.5 -158t-164 -108t-225 -39.5t-225 39.5t-164 108t-97.5 158t-33.5 192.5zM403 1616q0 41 26 66.5t69 25.5t68.5 -25.5t25.5 -66.5t-25.5 -66.5t-68.5 -25.5 t-69 25.5t-26 66.5zM786 1616q0 41 26 66.5t69 25.5t68.5 -25.5t25.5 -66.5t-25.5 -66.5t-68.5 -25.5t-69 25.5t-26 66.5z" />
<glyph unicode="&#xdd;" horiz-adv-x="1064" d="M16 1364h148l368 -686l369 686h148l-447 -813v-551h-139v551zM459 1495l170 227h172l-221 -227h-121z" />
<glyph unicode="&#xde;" horiz-adv-x="1021" d="M174 0v1364h139v-277h166q140 0 251 -43t179 -132.5t68 -213.5q0 -193 -152 -305t-393 -112h-119v-281h-139zM313 395h125q178 0 289 80.5t111 222.5q0 71 -30 125.5t-82 86.5t-115.5 47.5t-137.5 15.5h-160v-578z" />
<glyph unicode="&#xdf;" horiz-adv-x="1181" d="M164 0v995q0 234 116 352.5t314 118.5q143 0 244.5 -78t101.5 -208q0 -31 -6.5 -60t-14 -49t-25 -47t-26 -39t-32 -40t-29.5 -36q-9 -12 -31.5 -38.5t-31 -39t-21.5 -33.5t-18 -39.5t-5 -39.5t7 -38t26 -34t31.5 -26t46.5 -30t47 -30q12 -8 52 -34t59 -39t51.5 -42.5 t48 -54.5t28.5 -63.5t13 -81.5q0 -119 -91.5 -192.5t-244.5 -73.5q-144 0 -250 47l21 108q113 -45 225 -45q94 0 149.5 40t55.5 114q0 37 -15 68t-48 58.5t-56.5 43t-69.5 41.5q-38 22 -57 33.5t-50 33t-47.5 39t-34 41.5t-25 51.5t-7.5 59.5q0 31 7 59.5t24 58t27 44.5 t35.5 46.5t29.5 36.5q10 13 34.5 42.5t34 43t23.5 37.5t19.5 47t5.5 50q0 80 -63.5 127t-159.5 47q-130 0 -205.5 -90.5t-75.5 -272.5v-989h-137z" />
<glyph unicode="&#xe0;" horiz-adv-x="1009" d="M115 244q0 133 91.5 201.5t248.5 78.5q110 7 268 11v63q0 147 -60.5 216t-187.5 69q-144 0 -258 -70l-35 105q128 79 312 79q166 0 266 -100t100 -293v-604h-135v133q-52 -60 -142.5 -106.5t-195.5 -46.5q-129 0 -200.5 72.5t-71.5 191.5zM250 244q0 -78 43 -118t125 -40 q83 0 163.5 43.5t141.5 112.5v194q-109 -2 -252 -14q-221 -21 -221 -178zM281 1454h163l142 -319h-117z" />
<glyph unicode="&#xe1;" horiz-adv-x="1009" d="M115 244q0 133 91.5 201.5t248.5 78.5q110 7 268 11v63q0 147 -60.5 216t-187.5 69q-144 0 -258 -70l-35 105q128 79 312 79q166 0 266 -100t100 -293v-604h-135v133q-52 -60 -142.5 -106.5t-195.5 -46.5q-129 0 -200.5 72.5t-71.5 191.5zM250 244q0 -78 43 -118t125 -40 q83 0 163.5 43.5t141.5 112.5v194q-109 -2 -252 -14q-221 -21 -221 -178zM401 1135l142 319h164l-189 -319h-117z" />
<glyph unicode="&#xe2;" horiz-adv-x="1009" d="M115 244q0 133 91.5 201.5t248.5 78.5q110 7 268 11v63q0 147 -60.5 216t-187.5 69q-144 0 -258 -70l-35 105q128 79 312 79q166 0 266 -100t100 -293v-604h-135v133q-52 -60 -142.5 -106.5t-195.5 -46.5q-129 0 -200.5 72.5t-71.5 191.5zM225 1135l219 319h140l219 -319 h-131l-158 239l-158 -239h-131zM250 244q0 -78 43 -118t125 -40q83 0 163.5 43.5t141.5 112.5v194q-109 -2 -252 -14q-221 -21 -221 -178z" />
<glyph unicode="&#xe3;" horiz-adv-x="1009" d="M115 244q0 133 91.5 201.5t248.5 78.5q110 7 268 11v63q0 147 -60.5 216t-187.5 69q-144 0 -258 -70l-35 105q128 79 312 79q166 0 266 -100t100 -293v-604h-135v133q-52 -60 -142.5 -106.5t-195.5 -46.5q-129 0 -200.5 72.5t-71.5 191.5zM199 1206q34 96 75.5 138 t116.5 42q67 0 148 -47q4 -2 15 -8.5t15 -9t13.5 -7.5t14.5 -7.5t12.5 -6t12.5 -5.5t11.5 -4t12.5 -2.5t11 -0.5q21 0 38.5 14.5t26 30t26.5 51.5l86 -45q-40 -83 -80 -122t-99 -39q-52 0 -153 55q-73 43 -111 43q-12 0 -21.5 -1.5t-18 -8t-13.5 -10t-13 -17t-11 -19.5 t-13 -26.5t-14 -28.5zM250 244q0 -78 43 -118t125 -40q83 0 163.5 43.5t141.5 112.5v194q-109 -2 -252 -14q-221 -21 -221 -178z" />
<glyph unicode="&#xe4;" horiz-adv-x="1009" d="M115 244q0 133 91.5 201.5t248.5 78.5q110 7 268 11v63q0 147 -60.5 216t-187.5 69q-144 0 -258 -70l-35 105q128 79 312 79q166 0 266 -100t100 -293v-604h-135v133q-52 -60 -142.5 -106.5t-195.5 -46.5q-129 0 -200.5 72.5t-71.5 191.5zM221 1286q0 40 26.5 67t67.5 27 q43 0 71 -27t28 -67q0 -43 -28 -70.5t-71 -27.5q-41 0 -67.5 27.5t-26.5 70.5zM250 244q0 -78 43 -118t125 -40q83 0 163.5 43.5t141.5 112.5v194q-109 -2 -252 -14q-221 -21 -221 -178zM586 1286q0 40 26.5 67t67.5 27q42 0 70 -27t28 -67q0 -43 -27.5 -70.5t-70.5 -27.5 q-41 0 -67.5 27.5t-26.5 70.5z" />
<glyph unicode="&#xe5;" horiz-adv-x="1009" d="M115 244q0 133 91.5 201.5t248.5 78.5q110 7 268 11v63q0 147 -60.5 216t-187.5 69q-144 0 -258 -70l-35 105q128 79 312 79q166 0 266 -100t100 -293v-604h-135v133q-52 -60 -142.5 -106.5t-195.5 -46.5q-129 0 -200.5 72.5t-71.5 191.5zM250 244q0 -78 43 -118t125 -40 q83 0 163.5 43.5t141.5 112.5v194q-109 -2 -252 -14q-221 -21 -221 -178zM324 1298q0 66 46 115t126 49t126 -49t46 -115t-46 -114.5t-126 -48.5t-126 48.5t-46 114.5zM403 1298q0 -41 25.5 -67.5t67.5 -26.5q41 0 65.5 26.5t24.5 67.5t-25 68t-65 27q-42 0 -67.5 -27 t-25.5 -68z" />
<glyph unicode="&#xe6;" horiz-adv-x="1597" d="M115 250q0 137 87 211.5t238 83.5q101 6 277 10v47q0 143 -64 213t-182 70q-123 0 -256 -68l-31 107q128 73 301 73q233 0 318 -190q118 190 344 190q178 0 271 -111.5t93 -293.5q0 -53 -12 -135h-643q3 -176 87.5 -272.5t254.5 -96.5q147 0 281 64l24 -103 q-134 -69 -317 -69q-245 0 -367 167q-172 -167 -399 -167q-137 0 -221 76.5t-84 193.5zM248 258q0 -81 51 -127.5t145 -46.5q178 0 322 147q-39 90 -49 218q-158 -5 -238 -9q-118 -6 -174.5 -50t-56.5 -132zM856 565h524q7 91 -13.5 163t-78.5 118.5t-147 46.5 q-86 0 -151.5 -47t-98.5 -120.5t-35 -160.5z" />
<glyph unicode="&#xe7;" horiz-adv-x="913" d="M88 487q0 104 28.5 194t84.5 161t149 112t213 41q155 0 264 -53l-18 -108q-114 49 -236 49q-174 0 -261 -107t-87 -289t87 -288.5t261 -106.5q120 0 234 49l20 -108q-99 -49 -254 -53l-28 -82q70 -11 122 -48t52 -104q0 -145 -275 -188l-24 90q172 31 172 98q0 22 -14 38 t-43.5 27t-54.5 17t-66 14l57 146q-127 19 -215.5 92.5t-128 177t-39.5 229.5z" />
<glyph unicode="&#xe8;" horiz-adv-x="978" d="M92 487q0 225 117 367.5t313 142.5q93 0 164.5 -31.5t114.5 -87t64.5 -128t21.5 -158.5q0 -59 -13 -135h-643q2 -181 87 -275t251 -94q150 0 285 64l23 -103q-141 -69 -322 -69q-224 0 -343.5 141.5t-119.5 365.5zM231 565h525q12 147 -49.5 237.5t-190.5 90.5 q-127 0 -203.5 -98t-81.5 -230zM274 1454h164l142 -319h-117z" />
<glyph unicode="&#xe9;" horiz-adv-x="978" d="M92 487q0 225 117 367.5t313 142.5q93 0 164.5 -31.5t114.5 -87t64.5 -128t21.5 -158.5q0 -59 -13 -135h-643q2 -181 87 -275t251 -94q150 0 285 64l23 -103q-141 -69 -322 -69q-224 0 -343.5 141.5t-119.5 365.5zM231 565h525q12 147 -49.5 237.5t-190.5 90.5 q-127 0 -203.5 -98t-81.5 -230zM430 1135l141 319h164l-188 -319h-117z" />
<glyph unicode="&#xea;" horiz-adv-x="978" d="M92 487q0 225 117 367.5t313 142.5q93 0 164.5 -31.5t114.5 -87t64.5 -128t21.5 -158.5q0 -59 -13 -135h-643q2 -181 87 -275t251 -94q150 0 285 64l23 -103q-141 -69 -322 -69q-224 0 -343.5 141.5t-119.5 365.5zM225 1135l219 319h140l219 -319h-131l-158 239 l-158 -239h-131zM231 565h525q12 147 -49.5 237.5t-190.5 90.5q-127 0 -203.5 -98t-81.5 -230z" />
<glyph unicode="&#xeb;" horiz-adv-x="978" d="M92 487q0 225 117 367.5t313 142.5q93 0 164.5 -31.5t114.5 -87t64.5 -128t21.5 -158.5q0 -59 -13 -135h-643q2 -181 87 -275t251 -94q150 0 285 64l23 -103q-141 -69 -322 -69q-224 0 -343.5 141.5t-119.5 365.5zM231 565h525q12 147 -49.5 237.5t-190.5 90.5 q-127 0 -203.5 -98t-81.5 -230zM231 1286q0 40 27 67t68 27q42 0 70 -27t28 -67q0 -43 -27.5 -70.5t-70.5 -27.5q-41 0 -68 27.5t-27 70.5zM596 1286q0 40 26.5 67t67.5 27q42 0 70 -27t28 -67q0 -43 -27.5 -70.5t-70.5 -27.5q-41 0 -67.5 27.5t-26.5 70.5z" />
<glyph unicode="&#xec;" horiz-adv-x="464" d="M-10 1454h164l141 -319h-117zM164 0v977h137v-977h-137z" />
<glyph unicode="&#xed;" horiz-adv-x="464" d="M164 0v977h137v-977h-137zM166 1135l141 319h164l-188 -319h-117z" />
<glyph unicode="&#xee;" horiz-adv-x="464" d="M-55 1135l219 319h139l219 -319h-131l-158 239l-157 -239h-131zM164 0v977h137v-977h-137z" />
<glyph unicode="&#xef;" horiz-adv-x="464" d="M-45 1286q0 40 26.5 67t67.5 27q42 0 70 -27t28 -67q0 -43 -27.5 -70.5t-70.5 -27.5q-41 0 -67.5 27.5t-26.5 70.5zM164 0v977h137v-977h-137zM319 1286q0 40 27 67t68 27q42 0 70 -27t28 -67q0 -43 -27.5 -70.5t-70.5 -27.5q-41 0 -68 27.5t-27 70.5z" />
<glyph unicode="&#xf0;" horiz-adv-x="1091" d="M102 469q0 222 120.5 345.5t316.5 123.5q181 0 327 -96q-54 236 -250 366l-213 -157l-55 73l182 133q-134 74 -317 105l29 104q213 -30 391 -133l180 135l53 -73l-155 -115q128 -88 213.5 -251.5t85.5 -381.5q0 -198 -51 -346.5t-157 -234.5t-257 -86q-111 0 -197.5 40.5 t-139 109.5t-79.5 155t-27 184zM236 467q0 -171 81.5 -275t229.5 -104q70 0 126.5 28t93 73.5t61.5 106t35.5 121.5t10.5 124v178q-61 49 -140.5 79.5t-164.5 30.5q-162 0 -247.5 -94.5t-85.5 -267.5z" />
<glyph unicode="&#xf1;" horiz-adv-x="1112" d="M164 0v977h129v-141q123 161 323 161q88 0 155 -38t107 -105t60 -151.5t20 -184.5v-518h-137v508q0 375 -246 375q-80 0 -151.5 -43.5t-122.5 -108.5v-731h-137zM242 1206q34 96 75.5 138t116.5 42q67 0 148 -47q4 -2 15 -8.5t15 -9t13.5 -7.5t14.5 -7.5t12.5 -6 t12.5 -5.5t11.5 -4t12.5 -2.5t11 -0.5q21 0 38.5 14.5t26 30t26.5 51.5l86 -45q-40 -83 -80 -122t-99 -39q-52 0 -153 55q-73 43 -111 43q-12 0 -21.5 -1.5t-18 -8t-13.5 -10t-13 -17t-11 -19.5t-13 -26.5t-14 -28.5z" />
<glyph unicode="&#xf2;" horiz-adv-x="1101" d="M92 487q0 102 30.5 193.5t87 162.5t145 112.5t196.5 41.5t196.5 -41.5t145 -112.5t87 -162.5t30.5 -193.5t-30.5 -192.5t-87 -161t-145 -112t-196.5 -41.5t-196.5 41.5t-145 112t-87 161t-30.5 192.5zM229 487q0 -174 84 -285.5t238 -111.5q103 0 177 54t109 142t35 201 t-35 202t-109 143.5t-177 54.5t-177 -54.5t-109.5 -143.5t-35.5 -202zM309 1454h164l141 -319h-116z" />
<glyph unicode="&#xf3;" horiz-adv-x="1101" d="M92 487q0 102 30.5 193.5t87 162.5t145 112.5t196.5 41.5t196.5 -41.5t145 -112.5t87 -162.5t30.5 -193.5t-30.5 -192.5t-87 -161t-145 -112t-196.5 -41.5t-196.5 41.5t-145 112t-87 161t-30.5 192.5zM229 487q0 -174 84 -285.5t238 -111.5q103 0 177 54t109 142t35 201 t-35 202t-109 143.5t-177 54.5t-177 -54.5t-109.5 -143.5t-35.5 -202zM467 1135l141 319h164l-188 -319h-117z" />
<glyph unicode="&#xf4;" horiz-adv-x="1101" d="M92 487q0 102 30.5 193.5t87 162.5t145 112.5t196.5 41.5t196.5 -41.5t145 -112.5t87 -162.5t30.5 -193.5t-30.5 -192.5t-87 -161t-145 -112t-196.5 -41.5t-196.5 41.5t-145 112t-87 161t-30.5 192.5zM229 487q0 -174 84 -285.5t238 -111.5q103 0 177 54t109 142t35 201 t-35 202t-109 143.5t-177 54.5t-177 -54.5t-109.5 -143.5t-35.5 -202zM262 1135l219 319h140l219 -319h-131l-158 239l-158 -239h-131z" />
<glyph unicode="&#xf5;" horiz-adv-x="1101" d="M92 487q0 102 30.5 193.5t87 162.5t145 112.5t196.5 41.5t196.5 -41.5t145 -112.5t87 -162.5t30.5 -193.5t-30.5 -192.5t-87 -161t-145 -112t-196.5 -41.5t-196.5 41.5t-145 112t-87 161t-30.5 192.5zM229 487q0 -174 84 -285.5t238 -111.5q103 0 177 54t109 142t35 201 t-35 202t-109 143.5t-177 54.5t-177 -54.5t-109.5 -143.5t-35.5 -202zM246 1206q34 96 75.5 138t116.5 42q67 0 148 -47q3 -2 10 -6q79 -43 109 -45q16 0 28.5 6t24.5 23t17 27l20 40l86 -45q-40 -83 -80 -122t-99 -39q-52 0 -153 55q-73 43 -111 43q-12 0 -21.5 -1.5 t-18 -8t-13.5 -10t-13 -17t-11 -19.5t-13 -26.5t-14 -28.5z" />
<glyph unicode="&#xf6;" horiz-adv-x="1101" d="M92 487q0 102 30.5 193.5t87 162.5t145 112.5t196.5 41.5t196.5 -41.5t145 -112.5t87 -162.5t30.5 -193.5t-30.5 -192.5t-87 -161t-145 -112t-196.5 -41.5t-196.5 41.5t-145 112t-87 161t-30.5 192.5zM229 487q0 -174 84 -285.5t238 -111.5q103 0 177 54t109 142t35 201 t-35 202t-109 143.5t-177 54.5t-177 -54.5t-109.5 -143.5t-35.5 -202zM272 1286q0 40 27 67t68 27q42 0 70 -27t28 -67q0 -43 -27.5 -70.5t-70.5 -27.5q-41 0 -68 27.5t-27 70.5zM637 1286q0 40 26.5 67t67.5 27q42 0 70 -27t28 -67q0 -43 -27.5 -70.5t-70.5 -27.5 q-41 0 -67.5 27.5t-26.5 70.5z" />
<glyph unicode="&#xf7;" horiz-adv-x="1251" d="M164 610v105h923v-105h-923zM524 293q0 42 28.5 71t72.5 29q45 0 72.5 -29t27.5 -71t-27.5 -71t-72.5 -29q-44 0 -72.5 29t-28.5 71zM524 1032q0 42 28.5 71.5t72.5 29.5q45 0 72.5 -29.5t27.5 -71.5t-27.5 -71t-72.5 -29q-44 0 -72.5 29t-28.5 71z" />
<glyph unicode="&#xf8;" horiz-adv-x="1114" d="M98 -78l135 189q-66 72 -100.5 169t-34.5 207q0 102 30.5 193.5t87 162.5t145 112.5t196.5 41.5q148 0 258 -77l133 184l68 -51l-137 -191q67 -70 102 -167.5t35 -207.5q0 -102 -30.5 -192.5t-87 -161t-145 -112t-196.5 -41.5q-153 0 -260 75l-131 -182zM236 487 q0 -165 73 -272l436 608q-76 64 -188 64q-103 0 -177 -54.5t-109 -143.5t-35 -202zM367 152q78 -62 190 -62q154 0 238 111.5t84 285.5q0 164 -74 273z" />
<glyph unicode="&#xf9;" horiz-adv-x="1095" d="M145 459v518h138v-508q0 -184 53 -279.5t184 -95.5q80 0 152 43.5t123 108.5v731h137v-977h-129v141q-123 -161 -324 -161q-86 0 -151.5 38t-104.5 105t-58.5 151.5t-19.5 184.5zM328 1454h164l141 -319h-117z" />
<glyph unicode="&#xfa;" horiz-adv-x="1095" d="M145 459v518h138v-508q0 -184 53 -279.5t184 -95.5q80 0 152 43.5t123 108.5v731h137v-977h-129v141q-123 -161 -324 -161q-86 0 -151.5 38t-104.5 105t-58.5 151.5t-19.5 184.5zM449 1135l141 319h164l-189 -319h-116z" />
<glyph unicode="&#xfb;" horiz-adv-x="1095" d="M145 459v518h138v-508q0 -184 53 -279.5t184 -95.5q80 0 152 43.5t123 108.5v731h137v-977h-129v141q-123 -161 -324 -161q-86 0 -151.5 38t-104.5 105t-58.5 151.5t-19.5 184.5zM264 1135l219 319h140l219 -319h-131l-158 239l-158 -239h-131z" />
<glyph unicode="&#xfc;" horiz-adv-x="1095" d="M145 459v518h138v-508q0 -184 53 -279.5t184 -95.5q80 0 152 43.5t123 108.5v731h137v-977h-129v141q-123 -161 -324 -161q-86 0 -151.5 38t-104.5 105t-58.5 151.5t-19.5 184.5zM266 1286q0 40 26.5 67t67.5 27q43 0 71 -27t28 -67q0 -43 -28 -70.5t-71 -27.5 q-41 0 -67.5 27.5t-26.5 70.5zM631 1286q0 40 26.5 67t67.5 27q42 0 70 -27t28 -67q0 -43 -27.5 -70.5t-70.5 -27.5q-41 0 -67.5 27.5t-26.5 70.5z" />
<glyph unicode="&#xfd;" horiz-adv-x="907" d="M35 977h143l279 -832l274 832h141l-497 -1399h-135l147 416zM365 1135l141 319h164l-189 -319h-116z" />
<glyph unicode="&#xfe;" horiz-adv-x="1089" d="M164 -422v1868h137v-596q125 147 315 147q123 0 210.5 -67t129 -178.5t41.5 -255.5q0 -236 -133.5 -376t-359.5 -140q-108 0 -203 28v-430h-137zM301 123q71 -31 191 -31q178 0 273 105t95 299q0 180 -68.5 284.5t-207.5 104.5q-82 0 -156 -45.5t-127 -110.5v-606z" />
<glyph unicode="&#xff;" horiz-adv-x="907" d="M35 977h143l279 -832l274 832h141l-497 -1399h-135l147 416zM176 1286q0 40 26.5 67t67.5 27q43 0 71 -27t28 -67q0 -43 -28 -70.5t-71 -27.5q-41 0 -67.5 27.5t-26.5 70.5zM541 1286q0 40 26.5 67t67.5 27q42 0 70 -27t28 -67q0 -43 -27.5 -70.5t-70.5 -27.5 q-41 0 -67.5 27.5t-26.5 70.5z" />
<glyph unicode="&#x152;" horiz-adv-x="1945" d="M92 682q0 146 47 274t134 224.5t222.5 152.5t301.5 56q155 0 299 -25h729v-115h-590v-493h565v-115h-565v-526h596v-115h-735q-186 -25 -299 -25q-166 0 -301.5 56t-222.5 152.5t-134 224.5t-47 274zM231 682q0 -269 153 -430.5t429 -161.5q151 0 283 29v1126 q-132 29 -283 29q-276 0 -429 -161.5t-153 -430.5z" />
<glyph unicode="&#x153;" horiz-adv-x="1755" d="M92 487q0 102 30.5 193.5t87 162.5t145 112.5t196.5 41.5q130 0 229.5 -64t157.5 -173q54 110 148.5 173.5t216.5 63.5q93 0 164.5 -31.5t114 -87t64 -127.5t21.5 -159q0 -64 -12 -135h-643q2 -177 89.5 -273t248.5 -96q149 0 284 64l23 -103q-141 -69 -322 -69 q-142 0 -245.5 65t-151.5 170q-61 -106 -159.5 -170.5t-227.5 -64.5q-108 0 -196.5 41.5t-145 112t-87 161t-30.5 192.5zM229 487q0 -174 84 -285.5t238 -111.5q103 0 177 54t109 142t35 201t-35 202t-109 143.5t-177 54.5t-177 -54.5t-109.5 -143.5t-35.5 -202zM1012 565 h524q12 147 -49.5 237.5t-190.5 90.5q-127 0 -203 -98t-81 -230z" />
<glyph unicode="&#x178;" horiz-adv-x="1064" d="M16 1364h148l368 -686l369 686h148l-447 -813v-551h-139v551zM246 1616q0 41 25.5 66.5t68.5 25.5t68.5 -25.5t25.5 -66.5t-25.5 -66.5t-68.5 -25.5t-68.5 25.5t-25.5 66.5zM629 1616q0 41 25.5 66.5t68.5 25.5t68.5 -25.5t25.5 -66.5t-25.5 -66.5t-68.5 -25.5 t-68.5 25.5t-25.5 66.5z" />
<glyph unicode="&#x2c6;" horiz-adv-x="1069" d="M246 1135l219 319h139l219 -319h-131l-157 239l-158 -239h-131z" />
<glyph unicode="&#x2dc;" horiz-adv-x="1126" d="M246 1206q34 96 75.5 138t116.5 42q67 0 148 -47q3 -2 10 -6q79 -43 109 -45q16 0 28.5 6t24.5 23t17 27l20 40l86 -45q-40 -83 -80 -122t-99 -39q-52 0 -153 55q-73 43 -111 43q-12 0 -21.5 -1.5t-18 -8t-13.5 -10t-13 -17t-11 -19.5t-13 -26.5t-14 -28.5z" />
<glyph unicode="&#x2000;" horiz-adv-x="861" />
<glyph unicode="&#x2001;" horiz-adv-x="1722" />
<glyph unicode="&#x2002;" horiz-adv-x="861" />
<glyph unicode="&#x2003;" horiz-adv-x="1722" />
<glyph unicode="&#x2004;" horiz-adv-x="574" />
<glyph unicode="&#x2005;" horiz-adv-x="430" />
<glyph unicode="&#x2006;" horiz-adv-x="287" />
<glyph unicode="&#x2007;" horiz-adv-x="287" />
<glyph unicode="&#x2008;" horiz-adv-x="215" />
<glyph unicode="&#x2009;" horiz-adv-x="344" />
<glyph unicode="&#x200a;" horiz-adv-x="95" />
<glyph unicode="&#x2010;" horiz-adv-x="727" d="M123 473v113h481v-113h-481z" />
<glyph unicode="&#x2011;" horiz-adv-x="727" d="M123 473v113h481v-113h-481z" />
<glyph unicode="&#x2012;" horiz-adv-x="727" d="M123 473v113h481v-113h-481z" />
<glyph unicode="&#x2013;" horiz-adv-x="1060" d="M143 588v112h775v-112h-775z" />
<glyph unicode="&#x2014;" horiz-adv-x="1570" d="M123 473v113h1325v-113h-1325z" />
<glyph unicode="&#x2018;" horiz-adv-x="483" d="M139 979q17 256 146 467l96 -45q-54 -120 -79 -214t-32 -222z" />
<glyph unicode="&#x2019;" horiz-adv-x="483" d="M119 1010q54 119 78.5 213t31.5 223l131 -14q-17 -258 -145 -467z" />
<glyph unicode="&#x201a;" horiz-adv-x="481" d="M86 -240q54 119 79 214t32 223l131 -15q-17 -256 -146 -467z" />
<glyph unicode="&#x201c;" horiz-adv-x="841" d="M133 979q17 256 146 467l96 -45q-54 -120 -79 -214t-32 -222zM498 979q17 258 145 467l96 -45q-54 -119 -78.5 -213t-31.5 -223z" />
<glyph unicode="&#x201d;" horiz-adv-x="841" d="M133 1010q54 120 79 214t32 222l131 -14q-17 -256 -146 -467zM498 1010q54 119 78.5 213t31.5 223l131 -14q-17 -258 -145 -467z" />
<glyph unicode="&#x201e;" horiz-adv-x="845" d="M86 -240q54 119 79 214t32 223l131 -15q-17 -256 -146 -467zM451 -240q54 119 78.5 213.5t31.5 223.5l131 -15q-17 -258 -145 -467z" />
<glyph unicode="&#x2022;" horiz-adv-x="821" d="M164 582q0 102 70.5 174.5t175.5 72.5q106 0 176.5 -72t70.5 -175q0 -104 -70.5 -176t-176.5 -72q-105 0 -175.5 72t-70.5 176z" />
<glyph unicode="&#x2026;" horiz-adv-x="1523" d="M154 84q0 42 28 71t72 29t72 -29t28 -71t-28 -71t-72 -29t-72 29t-28 71zM662 84q0 42 28 71t72 29t72 -29t28 -71t-28 -71t-72 -29t-72 29t-28 71zM1169 84q0 42 28.5 71t72.5 29t72 -29t28 -71t-28 -71t-72 -29t-72.5 29t-28.5 71z" />
<glyph unicode="&#x202f;" horiz-adv-x="344" />
<glyph unicode="&#x2039;" horiz-adv-x="688" d="M113 492l331 419l91 -71l-277 -348l277 -349l-91 -71z" />
<glyph unicode="&#x203a;" horiz-adv-x="688" d="M154 143l276 349l-276 348l90 71l331 -419l-331 -420z" />
<glyph unicode="&#x205f;" horiz-adv-x="430" />
<glyph unicode="&#x20ac;" horiz-adv-x="1214" d="M102 446v99h195q-6 65 -6 137t6 137h-195v99h209q45 219 177 345t350 126q144 0 243 -41l-16 -107q-90 37 -217 37q-333 0 -404 -360h537v-99h-551q-6 -64 -6 -137q0 -72 6 -137h551v-99h-537q71 -360 404 -360q119 0 217 37l16 -105q-105 -43 -243 -43q-218 0 -350 126 t-177 345h-209z" />
<glyph unicode="&#x2122;" horiz-adv-x="1468" d="M92 1288v76h469v-76h-188v-559h-92v559h-189zM664 729l49 635h92l205 -430l204 430h93l49 -635h-92l-33 490l-170 -365h-103l-170 365l-32 -490h-92z" />
<glyph unicode="&#xe000;" horiz-adv-x="972" d="M0 0v973h973v-973h-973z" />
</font>
</defs>
</svg>
